<svg width="172" height="148" viewBox="0 0 172 148" fill="none" xmlns="http://www.w3.org/2000/svg">
<rect width="172" height="148" fill="#E5E5E5"/>
<g id="Favicon" clip-path="url(#clip0_0_1)">
<g id="circle-svgrepo-com 1">
<rect width="33" height="33" transform="translate(50 6)" fill="#00CA4E"/>
</g>
<g id="circle-svgrepo-com 2" clip-path="url(#clip1_0_1)">
<path id="Vector" d="M38.0334 27.8668C44.0165 27.8668 48.8668 23.0165 48.8668 17.0334C48.8668 11.0503 44.0165 6.2 38.0334 6.2C32.0503 6.2 27.2 11.0503 27.2 17.0334C27.2 23.0165 32.0503 27.8668 38.0334 27.8668Z" fill="#FFFF00"/>
</g>
<path id="Vector_2" d="M22 25C26.4183 25 30 21.4183 30 17C30 12.5817 26.4183 9 22 9C17.5817 9 14 12.5817 14 17C14 21.4183 17.5817 25 22 25Z" fill="#FF605C"/>
<g id="Group 1">
<g id="Group">
<path id="Vector_3" d="M164 24H7V141H164V24Z" fill="#030104"/>
<path id="Vector_4" d="M159.726 0H12.2934C5.49386 0 0 5.47494 0 12.2745V135.151C0 141.926 5.49386 147.426 12.2934 147.426H159.726C166.481 147.426 172 141.926 172 135.151V12.2745C172 5.47494 166.487 0 159.726 0ZM58.7546 9.22792C62.1355 9.22792 64.8792 11.9465 64.8792 15.3651C64.8792 18.7523 62.1355 21.5024 58.7546 21.5024C55.3612 21.5024 52.5859 18.7523 52.5859 15.3651C52.5859 11.9465 55.3612 9.22792 58.7546 9.22792ZM39.9456 9.22792C43.3201 9.22792 46.0828 11.9465 46.0828 15.3651C46.0828 18.7523 43.3201 21.5024 39.9456 21.5024C36.5332 21.5024 33.7831 18.7523 33.7831 15.3651C33.7831 11.9465 36.5332 9.22792 39.9456 9.22792ZM21.4961 9.22792C24.8958 9.22792 27.6396 11.9465 27.6396 15.3651C27.6396 18.7523 24.8958 21.5024 21.4961 21.5024C18.1152 21.5024 15.3651 18.7523 15.3651 15.3651C15.3651 11.9465 18.1152 9.22792 21.4961 9.22792ZM159.726 135.158H12.2934V30.8501H159.726V135.158Z" fill="#030104"/>
</g>
<path id="Bunt:\Studios&#62;" d="M117.032 92.064C117.032 96.8427 116.221 100.853 114.6 104.096C112.979 107.253 110.76 109.813 107.944 111.776C105.213 113.653 101.928 115.019 98.088 115.872C94.3333 116.64 90.28 117.024 85.928 117.024C82.4293 117.024 78.8027 116.811 75.048 116.384C71.2933 116.043 67.5813 115.488 63.912 114.72V37.792C66.8987 37.28 70.184 36.8533 73.768 36.512C77.352 36.0853 80.8933 35.872 84.392 35.872C90.3653 35.872 95.2293 36.512 98.984 37.792C102.739 38.9867 105.683 40.608 107.816 42.656C109.949 44.6187 111.4 46.8373 112.168 49.312C112.936 51.7867 113.32 54.2613 113.32 56.736C113.32 60.4907 112.381 63.8187 110.504 66.72C108.712 69.6213 106.28 71.9253 103.208 73.632C108.584 75.5947 112.211 78.24 114.088 81.568C116.051 84.896 117.032 88.3947 117.032 92.064ZM79.656 81.312V102.816C80.7653 102.987 81.96 103.115 83.24 103.2C84.6053 103.285 85.928 103.328 87.208 103.328C89 103.328 90.7493 103.2 92.456 102.944C94.1627 102.603 95.656 102.048 96.936 101.28C98.3013 100.427 99.4107 99.2747 100.264 97.824C101.117 96.288 101.544 94.368 101.544 92.064C101.544 88.224 100.307 85.4933 97.832 83.872C95.4427 82.1653 92.2 81.312 88.104 81.312H79.656ZM85.8 68.256C89.8107 68.256 92.84 67.4027 94.888 65.696C96.936 63.904 97.96 61.472 97.96 58.4C97.96 56.5227 97.6613 55.0293 97.064 53.92C96.4667 52.7253 95.656 51.8293 94.632 51.232C93.608 50.5493 92.4133 50.1227 91.048 49.952C89.6827 49.696 88.2747 49.568 86.824 49.568C85.6293 49.568 84.392 49.6107 83.112 49.696C81.832 49.7813 80.68 49.9093 79.656 50.08V68.256H85.8Z" fill="white"/>
</g>
</g>
<defs>
<clipPath id="clip0_0_1">
<rect width="172" height="172" fill="white" transform="translate(0 -13)"/>
</clipPath>
<clipPath id="clip1_0_1">
<rect width="24" height="24" fill="white" transform="translate(26)"/>
</clipPath>
</defs>
</svg>
