<svg width="477" height="56" viewBox="0 0 477 56" fill="none" xmlns="http://www.w3.org/2000/svg">
<path id="name" d="M27.12 5.384V45H19.248V27.528H8.752V45H0.88V5.384H8.752V21H19.248V5.384H27.12ZM58.032 43.976C56.5813 44.36 54.8107 44.744 52.72 45.128C50.672 45.512 48.432 45.704 46 45.704C43.5253 45.704 41.4987 45.3627 39.92 44.68C38.3413 43.9973 37.0827 43.0373 36.144 41.8C35.248 40.52 34.6293 39.0267 34.288 37.32C33.9467 35.6133 33.776 33.736 33.776 31.688V14.92H41.648V30.664C41.648 33.4373 41.968 35.5067 42.608 36.872C43.2907 38.1947 44.592 38.856 46.512 38.856C47.7067 38.856 48.9013 38.7493 50.096 38.536V14.92H58.032V43.976ZM66.032 15.88C67.44 15.496 69.168 15.1333 71.216 14.792C73.3067 14.4507 75.568 14.28 78 14.28C80.3893 14.28 82.3733 14.6213 83.952 15.304C85.5307 15.944 86.768 16.8827 87.664 18.12C88.6027 19.3147 89.264 20.7653 89.648 22.472C90.032 24.136 90.224 25.992 90.224 28.04V45H82.352V29.064C82.352 26.248 82.032 24.2213 81.392 22.984C80.752 21.7467 79.4507 21.128 77.488 21.128C76.8907 21.128 76.2933 21.1493 75.696 21.192C75.1413 21.2347 74.544 21.2987 73.904 21.384V45H66.032V15.88ZM103.152 21.448H96.304V14.92H103.152V7.368L111.024 6.088V14.92H123.632V21.448H111.024V33.608C111.024 34.7173 111.131 35.6133 111.344 36.296C111.557 36.9787 111.856 37.512 112.24 37.896C112.624 38.28 113.093 38.536 113.648 38.664C114.203 38.792 114.821 38.856 115.504 38.856C116.229 38.856 116.891 38.8347 117.488 38.792C118.128 38.7493 118.725 38.6853 119.28 38.6C119.877 38.472 120.475 38.3013 121.072 38.088C121.712 37.8747 122.395 37.5973 123.12 37.256L124.208 44.04C122.757 44.6373 121.179 45.064 119.472 45.32C117.808 45.576 116.187 45.704 114.608 45.704C112.773 45.704 111.152 45.5547 109.744 45.256C108.336 44.9573 107.141 44.3813 106.16 43.528C105.179 42.6747 104.432 41.48 103.92 39.944C103.408 38.3653 103.152 36.3173 103.152 33.8V21.448ZM127.984 30.216C127.984 27.5707 128.389 25.2453 129.2 23.24C130.011 21.2347 131.077 19.5707 132.4 18.248C133.723 16.8827 135.237 15.8587 136.944 15.176C138.651 14.4933 140.4 14.152 142.192 14.152C146.629 14.152 150 15.4747 152.304 18.12C154.608 20.7227 155.76 24.5413 155.76 29.576C155.76 30.088 155.739 30.6213 155.696 31.176C155.696 31.7307 155.675 32.1787 155.632 32.52H136.112C136.112 34.4827 136.923 36.04 138.544 37.192C140.165 38.3013 142.256 38.856 144.816 38.856C146.395 38.856 147.888 38.6853 149.296 38.344C150.747 38.0027 151.963 37.6613 152.944 37.32L154.032 44.04C152.667 44.5093 151.216 44.8933 149.68 45.192C148.144 45.5333 146.416 45.704 144.496 45.704C141.936 45.704 139.632 45.384 137.584 44.744C135.579 44.0613 133.851 43.08 132.4 41.8C130.992 40.4773 129.904 38.856 129.136 36.936C128.368 35.016 127.984 32.776 127.984 30.216ZM148.144 27.08C148.144 26.2693 148.037 25.5013 147.824 24.776C147.611 24.008 147.269 23.3253 146.8 22.728C146.331 22.1307 145.733 21.6613 145.008 21.32C144.283 20.936 143.387 20.744 142.32 20.744C141.296 20.744 140.4 20.9147 139.632 21.256C138.907 21.5973 138.288 22.0667 137.776 22.664C137.307 23.2613 136.923 23.944 136.624 24.712C136.368 25.48 136.197 26.2693 136.112 27.08H148.144ZM185.968 22.92C185.456 22.792 184.837 22.664 184.112 22.536C183.429 22.408 182.725 22.3013 182 22.216C181.275 22.088 180.571 22.0027 179.888 21.96C179.205 21.9173 178.629 21.896 178.16 21.896C177.051 21.896 175.963 21.96 174.896 22.088C173.829 22.1733 172.741 22.3653 171.632 22.664V45H163.696V16.904C165.787 16.136 167.92 15.5173 170.096 15.048C172.315 14.5787 174.896 14.344 177.84 14.344C178.267 14.344 178.864 14.3653 179.632 14.408C180.443 14.4507 181.296 14.536 182.192 14.664C183.088 14.7493 183.984 14.8773 184.88 15.048C185.819 15.176 186.651 15.368 187.376 15.624L185.968 22.92ZM241.968 11.336C240.091 11.336 238.512 11.6773 237.232 12.36C235.952 13.0427 234.885 14.0027 234.032 15.24C233.221 16.4347 232.624 17.8853 232.24 19.592C231.899 21.256 231.728 23.112 231.728 25.16C231.728 29.896 232.475 33.3947 233.968 35.656C235.461 37.8747 237.659 38.984 240.56 38.984C241.029 38.984 241.541 38.9627 242.096 38.92C242.651 38.8773 243.163 38.8133 243.632 38.728V24.264H251.504V44.04C250.565 44.3813 249.093 44.7653 247.088 45.192C245.125 45.6187 242.736 45.832 239.92 45.832C237.445 45.832 235.205 45.4053 233.2 44.552C231.237 43.656 229.552 42.3547 228.144 40.648C226.736 38.8987 225.648 36.744 224.88 34.184C224.112 31.5813 223.728 28.5733 223.728 25.16C223.728 21.7893 224.176 18.824 225.072 16.264C225.968 13.6613 227.184 11.4853 228.72 9.736C230.256 7.98667 232.069 6.68533 234.16 5.832C236.251 4.936 238.491 4.488 240.88 4.488C242.416 4.488 243.781 4.616 244.976 4.872C246.213 5.08533 247.28 5.34133 248.176 5.64C249.072 5.93866 249.797 6.25866 250.352 6.6C250.949 6.94133 251.397 7.19733 251.696 7.368L249.648 13.64C248.709 13.0427 247.557 12.5093 246.192 12.04C244.827 11.5707 243.419 11.336 241.968 11.336ZM270.064 39.368C270.917 39.368 271.749 39.368 272.56 39.368C273.371 39.3253 274.075 39.2613 274.672 39.176V32.264C274.16 32.1787 273.541 32.1147 272.816 32.072C272.091 31.9867 271.429 31.944 270.832 31.944C270.021 31.944 269.232 32.008 268.464 32.136C267.696 32.2213 267.013 32.392 266.416 32.648C265.861 32.904 265.413 33.2667 265.072 33.736C264.731 34.2053 264.56 34.824 264.56 35.592C264.56 36.9573 265.072 37.9387 266.096 38.536C267.12 39.0907 268.443 39.368 270.064 39.368ZM269.36 14.152C271.835 14.152 273.883 14.4507 275.504 15.048C277.168 15.6027 278.491 16.4133 279.472 17.48C280.453 18.504 281.157 19.784 281.584 21.32C282.011 22.8133 282.224 24.4987 282.224 26.376V44.296C281.072 44.552 279.365 44.8507 277.104 45.192C274.843 45.5333 272.304 45.704 269.488 45.704C267.568 45.704 265.819 45.5333 264.24 45.192C262.704 44.8507 261.381 44.296 260.272 43.528C259.163 42.7173 258.309 41.6933 257.712 40.456C257.115 39.176 256.816 37.6187 256.816 35.784C256.816 34.0347 257.157 32.5627 257.84 31.368C258.523 30.1733 259.44 29.2133 260.592 28.488C261.744 27.7627 263.067 27.2507 264.56 26.952C266.053 26.6107 267.611 26.44 269.232 26.44C271.28 26.44 273.093 26.6107 274.672 26.952V25.992C274.672 24.4987 274.203 23.2613 273.264 22.28C272.325 21.256 270.704 20.744 268.4 20.744C266.907 20.744 265.456 20.8507 264.048 21.064C262.683 21.2773 261.573 21.5333 260.72 21.832L259.632 15.496C260.613 15.1547 262 14.856 263.792 14.6C265.584 14.3013 267.44 14.152 269.36 14.152ZM315.888 43.72C315.76 43.8053 315.461 43.9547 314.992 44.168C314.565 44.3813 313.989 44.616 313.264 44.872C312.539 45.0853 311.643 45.2773 310.576 45.448C309.552 45.6187 308.379 45.704 307.056 45.704C303.429 45.704 300.784 44.6373 299.12 42.504C297.456 40.328 296.624 37.1707 296.624 33.032V7.496H288.304V0.967999H304.496V33.608C304.496 35.656 304.901 37.0427 305.712 37.768C306.523 38.4933 307.547 38.856 308.784 38.856C310.363 38.856 311.685 38.6427 312.752 38.216C313.819 37.7893 314.523 37.512 314.864 37.384L315.888 43.72ZM347.888 43.72C347.76 43.8053 347.461 43.9547 346.992 44.168C346.565 44.3813 345.989 44.616 345.264 44.872C344.539 45.0853 343.643 45.2773 342.576 45.448C341.552 45.6187 340.379 45.704 339.056 45.704C335.429 45.704 332.784 44.6373 331.12 42.504C329.456 40.328 328.624 37.1707 328.624 33.032V7.496H320.304V0.967999H336.496V33.608C336.496 35.656 336.901 37.0427 337.712 37.768C338.523 38.4933 339.547 38.856 340.784 38.856C342.363 38.856 343.685 38.6427 344.752 38.216C345.819 37.7893 346.523 37.512 346.864 37.384L347.888 43.72ZM380.208 29.896C380.208 32.2853 379.867 34.4613 379.184 36.424C378.501 38.344 377.541 40.008 376.304 41.416C375.067 42.824 373.573 43.912 371.824 44.68C370.117 45.448 368.197 45.832 366.064 45.832C363.931 45.832 361.989 45.448 360.24 44.68C358.533 43.912 357.04 42.824 355.76 41.416C354.523 40.008 353.563 38.344 352.88 36.424C352.197 34.4613 351.856 32.2853 351.856 29.896C351.856 27.5493 352.197 25.416 352.88 23.496C353.605 21.5333 354.587 19.8693 355.824 18.504C357.104 17.096 358.619 16.0293 360.368 15.304C362.117 14.536 364.016 14.152 366.064 14.152C368.155 14.152 370.053 14.536 371.76 15.304C373.509 16.0293 375.003 17.096 376.24 18.504C377.52 19.8693 378.501 21.5333 379.184 23.496C379.867 25.416 380.208 27.5493 380.208 29.896ZM359.856 29.96C359.856 32.648 360.325 34.824 361.264 36.488C362.245 38.152 363.803 38.984 365.936 38.984C367.984 38.984 369.52 38.152 370.544 36.488C371.611 34.824 372.144 32.648 372.144 29.96C372.144 27.272 371.653 25.1173 370.672 23.496C369.733 21.832 368.197 21 366.064 21C364.016 21 362.459 21.832 361.392 23.496C360.368 25.1173 359.856 27.272 359.856 29.96ZM402.608 45C402.139 43.6773 401.691 42.4613 401.264 41.352C400.88 40.2427 400.496 39.176 400.112 38.152C399.771 37.0853 399.408 35.9973 399.024 34.888C398.683 33.736 398.32 32.4773 397.936 31.112C397.509 32.4773 397.125 33.7147 396.784 34.824C396.443 35.8907 396.08 36.9573 395.696 38.024C395.355 39.0907 394.992 40.1787 394.608 41.288C394.224 42.3973 393.755 43.6347 393.2 45H387.248C386.736 43.1227 386.245 41.0533 385.776 38.792C385.349 36.488 384.944 34.056 384.56 31.496C384.176 28.8933 383.835 26.2053 383.536 23.432C383.237 20.6587 382.96 17.8213 382.704 14.92H389.424C389.595 18.632 389.765 22.2587 389.936 25.8C390.149 29.3413 390.512 32.9893 391.024 36.744C391.579 35.1227 392.048 33.6293 392.432 32.264C392.859 30.856 393.221 29.5333 393.52 28.296C393.861 27.016 394.16 25.8 394.416 24.648C394.715 23.4533 395.013 22.2373 395.312 21H401.008C401.264 22.2373 401.52 23.4533 401.776 24.648C402.075 25.8 402.373 27.016 402.672 28.296C403.013 29.5333 403.355 30.856 403.696 32.264C404.08 33.6293 404.528 35.1227 405.04 36.744C405.296 34.7813 405.509 32.904 405.68 31.112C405.851 29.32 405.979 27.5493 406.064 25.8C406.192 24.008 406.277 22.2373 406.32 20.488C406.405 18.696 406.491 16.84 406.576 14.92H413.296C412.827 20.7653 412.165 26.2693 411.312 31.432C410.501 36.5947 409.584 41.1173 408.56 45H402.608ZM430.064 39.368C430.917 39.368 431.749 39.368 432.56 39.368C433.371 39.3253 434.075 39.2613 434.672 39.176V32.264C434.16 32.1787 433.541 32.1147 432.816 32.072C432.091 31.9867 431.429 31.944 430.832 31.944C430.021 31.944 429.232 32.008 428.464 32.136C427.696 32.2213 427.013 32.392 426.416 32.648C425.861 32.904 425.413 33.2667 425.072 33.736C424.731 34.2053 424.56 34.824 424.56 35.592C424.56 36.9573 425.072 37.9387 426.096 38.536C427.12 39.0907 428.443 39.368 430.064 39.368ZM429.36 14.152C431.835 14.152 433.883 14.4507 435.504 15.048C437.168 15.6027 438.491 16.4133 439.472 17.48C440.453 18.504 441.157 19.784 441.584 21.32C442.011 22.8133 442.224 24.4987 442.224 26.376V44.296C441.072 44.552 439.365 44.8507 437.104 45.192C434.843 45.5333 432.304 45.704 429.488 45.704C427.568 45.704 425.819 45.5333 424.24 45.192C422.704 44.8507 421.381 44.296 420.272 43.528C419.163 42.7173 418.309 41.6933 417.712 40.456C417.115 39.176 416.816 37.6187 416.816 35.784C416.816 34.0347 417.157 32.5627 417.84 31.368C418.523 30.1733 419.44 29.2133 420.592 28.488C421.744 27.7627 423.067 27.2507 424.56 26.952C426.053 26.6107 427.611 26.44 429.232 26.44C431.28 26.44 433.093 26.6107 434.672 26.952V25.992C434.672 24.4987 434.203 23.2613 433.264 22.28C432.325 21.256 430.704 20.744 428.4 20.744C426.907 20.744 425.456 20.8507 424.048 21.064C422.683 21.2773 421.573 21.5333 420.72 21.832L419.632 15.496C420.613 15.1547 422 14.856 423.792 14.6C425.584 14.3013 427.44 14.152 429.36 14.152ZM476.208 14.92C475.397 17.736 474.608 20.5093 473.84 23.24C473.115 25.928 472.347 28.5733 471.536 31.176C470.725 33.736 469.851 36.2533 468.912 38.728C468.016 41.2027 467.035 43.6133 465.968 45.96C465.157 47.6667 464.347 49.1387 463.536 50.376C462.768 51.6133 461.893 52.616 460.912 53.384C459.973 54.1947 458.907 54.792 457.712 55.176C456.56 55.56 455.195 55.752 453.616 55.752C452.293 55.752 451.077 55.6453 449.968 55.432C448.901 55.2187 448.005 54.9413 447.28 54.6L448.752 48.008C449.605 48.392 450.352 48.648 450.992 48.776C451.675 48.9467 452.4 49.032 453.168 49.032C454.704 49.032 455.941 48.52 456.88 47.496C457.819 46.472 458.565 45.256 459.12 43.848C457.243 40.0933 455.365 35.8053 453.488 30.984C451.611 26.12 449.904 20.7653 448.368 14.92H456.56C456.944 16.4987 457.371 18.184 457.84 19.976C458.352 21.768 458.885 23.56 459.44 25.352C459.995 27.144 460.571 28.9147 461.168 30.664C461.808 32.3707 462.448 33.9707 463.088 35.464C463.515 33.9707 463.963 32.3707 464.432 30.664C464.901 28.9147 465.349 27.1653 465.776 25.416C466.203 23.624 466.608 21.832 466.992 20.04C467.419 18.248 467.803 16.5413 468.144 14.92H476.208Z" fill="black"/>
</svg>
